<?xml version="1.0" encoding="UTF-8" standalone="no"?>
<!DOCTYPE svg PUBLIC "-//W3C//DTD SVG 1.1//EN" "http://www.w3.org/Graphics/SVG/1.1/DTD/svg11.dtd">
<svg width="100%" height="100%" viewBox="0 0 1890 648" version="1.1" xmlns="http://www.w3.org/2000/svg" xmlns:xlink="http://www.w3.org/1999/xlink" xml:space="preserve" xmlns:serif="http://www.serif.com/" style="fill-rule:evenodd;clip-rule:evenodd;stroke-linejoin:round;stroke-miterlimit:2;">
    <g transform="matrix(1,0,0,1,-2091.62,0)">
        <g id="Artboard1" transform="matrix(0.821313,0,0,0.452676,5942.48,330.521)">
            <rect x="-4688.66" y="-730.149" width="2300.91" height="1429.82" style="fill:none;"/>
            <g transform="matrix(1.21756,0,0,2.20908,-4939.77,-3630.77)">
                <g>
                    <g transform="matrix(5.72265,0,0,5.72265,-3788.05,-7021.86)">
                        <path d="M828.47,1531.76C826.67,1531.76 825.137,1531.34 823.87,1530.49C822.604,1529.64 821.712,1528.46 821.195,1526.94C820.679,1525.42 820.654,1523.68 821.12,1521.71L826.47,1498.61C826.637,1497.91 826.637,1497.45 826.47,1497.21C826.304,1496.98 825.887,1496.8 825.22,1496.66L824.22,1496.46C823.787,1496.36 823.57,1496.18 823.57,1495.91C823.57,1495.51 823.87,1495.31 824.47,1495.31L833.47,1495.31C833.937,1495.31 834.17,1495.48 834.17,1495.81C834.17,1496.18 833.937,1496.4 833.47,1496.46L832.07,1496.66C831.37,1496.76 830.879,1496.95 830.595,1497.21C830.312,1497.48 830.087,1497.96 829.92,1498.66L824.57,1521.76C823.97,1524.3 824.145,1526.26 825.095,1527.66C826.045,1529.06 827.52,1529.76 829.52,1529.76C831.687,1529.76 833.437,1529.06 834.77,1527.66C836.104,1526.26 837.054,1524.3 837.62,1521.76L842.72,1499.66C843.154,1497.8 842.82,1496.8 841.72,1496.66L840.62,1496.51C840.154,1496.45 839.92,1496.25 839.92,1495.91C839.92,1495.71 840.02,1495.56 840.22,1495.46C840.42,1495.36 840.637,1495.31 840.87,1495.31L848.07,1495.31C848.504,1495.31 848.72,1495.48 848.72,1495.81C848.72,1496.15 848.454,1496.36 847.92,1496.46L846.72,1496.66C845.554,1496.86 844.754,1497.85 844.32,1499.61L839.22,1521.71C838.52,1524.75 837.254,1527.18 835.42,1529.01C833.587,1530.85 831.27,1531.76 828.47,1531.76Z" style="fill:white;fill-rule:nonzero;"/>
                        <path d="M841.02,1530.66L845.77,1510.71C845.937,1509.98 845.962,1509.41 845.845,1508.99C845.729,1508.57 845.42,1508.36 844.92,1508.36C844.32,1508.36 843.662,1508.81 842.945,1509.69C842.229,1510.57 841.42,1512.25 840.52,1514.71C840.387,1515.15 840.154,1515.36 839.82,1515.36C839.32,1515.36 839.187,1515.06 839.42,1514.46C840.154,1512.16 840.929,1510.36 841.745,1509.06C842.562,1507.76 843.387,1506.85 844.22,1506.31C845.054,1505.78 845.82,1505.51 846.52,1505.51C847.62,1505.51 848.404,1505.92 848.87,1506.74C849.337,1507.56 849.354,1508.9 848.92,1510.76L847.67,1516.16C847.637,1516.4 847.687,1516.53 847.82,1516.56C847.954,1516.6 848.07,1516.51 848.17,1516.31C849.47,1513.61 850.72,1511.47 851.92,1509.89C853.12,1508.31 854.254,1507.18 855.32,1506.51C856.387,1505.85 857.354,1505.51 858.22,1505.51C859.454,1505.51 860.354,1506.01 860.92,1507.01C861.487,1508.01 861.487,1509.55 860.92,1511.61L857.12,1526.11C856.887,1527.05 856.87,1527.75 857.07,1528.21C857.27,1528.68 857.637,1528.91 858.17,1528.91C858.837,1528.91 859.495,1528.47 860.145,1527.59C860.795,1526.71 864.535,1517.97 865.235,1515.51C865.335,1515.14 865.552,1514.96 865.885,1514.96C866.152,1514.96 866.31,1515.06 866.36,1515.26C866.41,1515.46 866.402,1515.69 866.335,1515.96C865.702,1518.22 861.954,1527.06 861.22,1528.34C860.487,1529.62 859.745,1530.51 858.995,1531.01C858.245,1531.51 857.487,1531.76 856.72,1531.76C855.52,1531.76 854.62,1531.26 854.02,1530.26C853.42,1529.26 853.387,1527.71 853.92,1525.61L857.77,1511.11C858.137,1509.81 858.195,1508.91 857.945,1508.41C857.695,1507.91 857.337,1507.66 856.87,1507.66C856.137,1507.66 855.304,1508.12 854.37,1509.04C853.437,1509.96 852.487,1511.21 851.52,1512.79C850.554,1514.37 849.604,1516.16 848.67,1518.16C847.737,1520.16 846.895,1522.25 846.145,1524.41C845.395,1526.58 844.787,1528.7 844.32,1530.76C844.22,1531.13 843.987,1531.31 843.62,1531.31L841.57,1531.31C841.104,1531.31 840.92,1531.1 841.02,1530.66Z" style="fill:white;fill-rule:nonzero;"/>
                        <path d="M861.92,1531.31C861.454,1531.31 861.27,1531.1 861.37,1530.66L866.12,1510.71C866.287,1509.98 866.312,1509.41 866.195,1508.99C866.079,1508.57 865.77,1508.36 865.27,1508.36C864.67,1508.36 864.012,1508.81 863.295,1509.69C862.579,1510.57 859.774,1515.52 858.874,1517.99C858.741,1518.42 858.507,1518.64 858.174,1518.64C857.674,1518.64 857.541,1518.34 857.774,1517.74C858.507,1515.44 861.279,1510.36 862.095,1509.06C862.912,1507.76 863.737,1506.85 864.57,1506.31C865.404,1505.78 866.17,1505.51 866.87,1505.51C867.97,1505.51 868.754,1505.92 869.22,1506.74C869.687,1507.56 869.704,1508.9 869.27,1510.76L868.72,1513.11C868.687,1513.35 868.737,1513.48 868.87,1513.51C869.004,1513.55 869.12,1513.46 869.22,1513.26C870.487,1510.36 871.637,1508.35 872.67,1507.21C873.704,1506.08 874.887,1505.51 876.22,1505.51C877.12,1505.51 877.795,1505.76 878.245,1506.24C878.695,1506.72 878.92,1507.38 878.92,1508.21C878.92,1509.05 878.72,1509.71 878.32,1510.21C877.92,1510.71 877.404,1510.96 876.77,1510.96C876.237,1510.96 875.854,1510.83 875.62,1510.56C875.387,1510.3 875.212,1509.99 875.095,1509.64C874.979,1509.29 874.854,1508.98 874.72,1508.71C874.587,1508.45 874.37,1508.31 874.07,1508.31C873.57,1508.31 872.92,1508.95 872.12,1510.21C871.32,1511.48 870.462,1513.19 869.545,1515.34C868.629,1517.49 867.745,1519.9 866.895,1522.56C866.045,1525.23 865.304,1527.96 864.67,1530.76C864.57,1531.13 864.337,1531.31 863.97,1531.31L861.92,1531.31Z" style="fill:white;fill-rule:nonzero;"/>
                        <path d="M876.97,1531.76C875.204,1531.76 873.787,1531.07 872.72,1529.69C871.654,1528.31 871.12,1526.35 871.12,1523.81C871.12,1521.61 871.512,1519.43 872.295,1517.26C873.079,1515.1 874.104,1513.13 875.37,1511.36C876.637,1509.6 878.029,1508.18 879.545,1507.11C881.062,1506.05 882.537,1505.51 883.97,1505.51C885.537,1505.51 886.662,1505.89 887.345,1506.64C888.029,1507.39 888.37,1508.4 888.37,1509.66C888.37,1511.16 887.845,1512.66 886.795,1514.14C885.745,1515.62 884.279,1516.95 882.395,1518.11C880.512,1519.28 878.304,1520.15 875.77,1520.71C875.037,1520.88 874.654,1521.3 874.62,1521.96C874.587,1522.2 874.57,1522.44 874.57,1522.69L874.57,1523.41C874.57,1525.31 874.895,1526.75 875.545,1527.71C876.195,1528.68 877.087,1529.16 878.22,1529.16C879.487,1529.16 880.712,1528.58 881.895,1527.41C883.079,1526.25 884.07,1524.6 884.87,1522.46C884.97,1522.16 885.17,1522.01 885.47,1522.01C885.67,1522.01 885.795,1522.1 885.845,1522.26C885.895,1522.43 885.887,1522.63 885.82,1522.86C884.754,1525.8 883.462,1528.01 881.945,1529.51C880.429,1531.01 878.77,1531.76 876.97,1531.76ZM875.12,1518.81C875.054,1519.05 875.095,1519.24 875.245,1519.39C875.395,1519.54 875.587,1519.58 875.82,1519.51C877.887,1518.95 879.62,1518.09 881.02,1516.94C882.42,1515.79 883.479,1514.5 884.195,1513.06C884.912,1511.63 885.27,1510.23 885.27,1508.86C885.27,1507.46 884.72,1506.76 883.62,1506.76C882.654,1506.76 881.604,1507.33 880.47,1508.46C879.337,1509.6 878.287,1511.08 877.32,1512.91C876.354,1514.75 875.62,1516.71 875.12,1518.81Z" style="fill:white;fill-rule:nonzero;"/>
                        <path d="M886.67,1531.76C885.47,1531.76 884.537,1531.25 883.87,1530.21C883.204,1529.18 882.87,1527.66 882.87,1525.66C882.87,1523.76 883.137,1521.86 883.67,1519.94C884.204,1518.02 884.937,1516.2 885.87,1514.46C886.804,1512.73 887.862,1511.2 889.045,1509.86C890.229,1508.53 891.479,1507.47 892.795,1506.69C894.112,1505.91 895.42,1505.51 896.72,1505.51C897.354,1505.51 897.954,1505.64 898.52,1505.89C899.087,1506.14 899.554,1506.53 899.92,1507.06C900.12,1507.36 900.32,1507.51 900.52,1507.51C900.72,1507.51 900.92,1507.36 901.12,1507.06C901.487,1506.53 901.787,1506.19 902.02,1506.04C902.254,1505.89 902.47,1505.81 902.67,1505.81C903.104,1505.81 903.27,1506.05 903.17,1506.51L898.72,1525.66C898.22,1527.83 898.554,1528.91 899.72,1528.91C900.487,1528.91 901.179,1528.4 901.795,1527.36C902.412,1526.33 903.037,1524.73 903.67,1522.56C903.77,1522.2 903.987,1522.01 904.32,1522.01C904.554,1522.01 904.704,1522.11 904.77,1522.31C904.837,1522.51 904.837,1522.75 904.77,1523.01C904.137,1526.15 903.287,1528.39 902.22,1529.74C901.154,1531.09 899.87,1531.76 898.37,1531.76C897.07,1531.76 896.145,1531.21 895.595,1530.11C895.045,1529.01 894.987,1527.51 895.42,1525.61L896.07,1522.86C896.137,1522.63 896.095,1522.5 895.945,1522.46C895.795,1522.43 895.67,1522.51 895.57,1522.71C893.737,1526.08 892.112,1528.43 890.695,1529.76C889.279,1531.1 887.937,1531.76 886.67,1531.76ZM887.92,1529.21C888.72,1529.21 889.604,1528.73 890.57,1527.76C891.537,1526.8 892.495,1525.55 893.445,1524.01C894.395,1522.48 895.27,1520.83 896.07,1519.06C896.87,1517.3 897.512,1515.6 897.995,1513.96C898.479,1512.33 898.72,1510.95 898.72,1509.81C898.72,1507.78 898.004,1506.76 896.57,1506.76C895.704,1506.76 894.787,1507.16 893.82,1507.94C892.854,1508.72 891.929,1509.78 891.045,1511.11C890.162,1512.45 889.362,1513.96 888.645,1515.64C887.929,1517.32 887.354,1519.07 886.92,1520.89C886.487,1522.71 886.27,1524.48 886.27,1526.21C886.27,1527.38 886.412,1528.17 886.695,1528.59C886.979,1529.01 887.387,1529.21 887.92,1529.21Z" style="fill:white;fill-rule:nonzero;"/>
                        <path d="M903.92,1531.81C902.82,1531.81 902.037,1531.41 901.57,1530.59C901.104,1529.77 901.087,1528.43 901.52,1526.56L907.87,1499.31C908.037,1498.71 908.045,1498.3 907.895,1498.06C907.745,1497.83 907.437,1497.7 906.97,1497.66L905.47,1497.51C904.97,1497.48 904.754,1497.26 904.82,1496.86C904.887,1496.56 905.12,1496.38 905.52,1496.31C906.72,1496.11 907.787,1495.87 908.72,1495.59C909.654,1495.31 910.404,1494.93 910.97,1494.46C911.237,1494.26 911.487,1494.16 911.72,1494.16C912.12,1494.16 912.27,1494.41 912.17,1494.91L904.77,1526.61C904.604,1527.35 904.579,1527.92 904.695,1528.34C904.812,1528.76 905.12,1528.96 905.62,1528.96C906.22,1528.96 906.879,1528.52 907.595,1527.64C908.312,1526.76 909.12,1525.08 910.02,1522.61C910.154,1522.18 910.387,1521.96 910.72,1521.96C911.22,1521.96 911.354,1522.26 911.12,1522.86C910.42,1525.13 909.645,1526.92 908.795,1528.24C907.945,1529.56 907.104,1530.48 906.27,1531.01C905.437,1531.55 904.654,1531.81 903.92,1531.81Z" style="fill:white;fill-rule:nonzero;"/>
                    </g>
                    <g transform="matrix(5.96836,0,0,5.96836,-3456.65,-7395.25)">
                        <path d="M836.22,1514.21L838.12,1514.21L838.12,1516.11L826.72,1516.11L826.72,1514.21L828.62,1514.21L828.62,1508.51L830.52,1508.51L830.52,1502.81L834.32,1502.81L834.32,1508.51L836.22,1508.51L836.22,1514.21ZM819.12,1531.31L822.92,1531.31L822.92,1525.61L824.82,1525.61L824.82,1519.91L840.02,1519.91L840.02,1525.61L841.92,1525.61L841.92,1531.31L845.72,1531.31L845.72,1525.61L843.82,1525.61L843.82,1519.91L841.92,1519.91L841.92,1514.21L840.02,1514.21L840.02,1508.51L838.12,1508.51L838.12,1502.81L836.22,1502.81L836.22,1499.01L834.32,1499.01L834.32,1495.21L830.52,1495.21L830.52,1499.01L828.62,1499.01L828.62,1502.81L826.72,1502.81L826.72,1508.51L824.82,1508.51L824.82,1514.21L822.92,1514.21L822.92,1519.91L821.02,1519.91L821.02,1525.61L819.12,1525.61L819.12,1531.31Z" style="fill:white;fill-rule:nonzero;"/>
                        <path d="M855.22,1508.51L862.82,1508.51L862.82,1504.71L857.12,1504.71L857.12,1506.61L855.22,1506.61L855.22,1508.51ZM845.72,1531.31L859.02,1531.31L859.02,1527.51L853.32,1527.51L853.32,1510.41L855.22,1510.41L855.22,1508.51L853.32,1508.51L853.32,1504.71L845.72,1504.71L845.72,1508.51L849.52,1508.51L849.52,1527.51L845.72,1527.51L845.72,1531.31Z" style="fill:white;fill-rule:nonzero;"/>
                        <path d="M864.72,1527.51L866.62,1527.51L866.62,1529.41L868.52,1529.41L868.52,1531.31L876.12,1531.31L876.12,1527.51L868.52,1527.51L868.52,1508.51L876.12,1508.51L876.12,1504.71L868.52,1504.71L868.52,1499.01L864.72,1499.01L864.72,1504.71L860.92,1504.71L860.92,1508.51L864.72,1508.51L864.72,1527.51Z" style="fill:white;fill-rule:nonzero;"/>
                    </g>
                </g>
            </g>
            <g transform="matrix(14.8132,0,0,26.8762,-16455.6,-39945.7)">
                <path d="M824.764,1483.81L824.764,1487.61L820.964,1487.61L820.964,1483.81L822.92,1483.81L822.92,1480.01L824.764,1480.01L824.764,1476.21L826.72,1476.21L826.72,1472.41L830.52,1472.41L830.52,1476.21L832.364,1476.21L832.364,1480.01L834.32,1480.01L834.32,1483.81L838.12,1483.81L838.12,1480.01L839.964,1480.01L839.964,1476.21L841.92,1476.21L841.92,1472.41L845.72,1472.41L845.72,1476.21L847.564,1476.21L847.564,1480.01L845.72,1480.01L845.72,1483.81L839.964,1483.81L839.964,1487.61L838.12,1487.61L838.12,1491.41L836.164,1491.41L836.164,1495.21L834.32,1495.21L834.32,1499.01L830.52,1499.01L830.52,1495.21L832.364,1495.21L832.364,1491.41L834.32,1491.41L834.32,1487.61L832.364,1487.61L832.364,1483.81L830.52,1483.81L830.52,1480.01L826.72,1480.01L826.72,1483.81L824.764,1483.81Z" style="fill:white;"/>
            </g>
        </g>
    </g>
</svg>
